<?xml version="1.0" encoding="UTF-8" standalone="no"?>
<svg xmlns="http://www.w3.org/2000/svg" contentScriptType="application/ecmascript" contentStyleType="text/css"
     height="271.2px" preserveAspectRatio="none" style="width:558px;height:271px;" version="1.1" viewBox="0 0 558 271"
     width="558px" zoomAndPan="magnify"><defs><filter height="300%" id="f64zzbabr33z" width="300%" x="-1" y="-1"><feGaussianBlur result="blurOut" stdDeviation="2.4"/><feColorMatrix in="blurOut" result="blurOut2" type="matrix" values="0 0 0 0 0 0 0 0 0 0 0 0 0 0 0 0 0 0 .4 0"/><feOffset dx="4.8" dy="4.8" in="blurOut2" result="blurOut3"/><feBlend in="SourceGraphic" in2="blurOut3" mode="normal"/></filter></defs><g><ellipse cx="19.2" cy="39.6" fill="#000000" filter="url(#f64zzbabr33z)" rx="12" ry="12" style="stroke: none; stroke-width: 1.2;"/><rect fill="#FEFECE" filter="url(#f64zzbabr33z)" height="60" rx="15" ry="15" style="stroke: #A80036; stroke-width: 1.7999999999999998;" width="171.6" x="73.8" y="9.6"/><line style="stroke: #A80036; stroke-width: 1.7999999999999998;" x1="73.8" x2="245.4" y1="41.1563" y2="41.1563"/><text fill="#000000" font-family="sans-serif" font-size="16.8" lengthAdjust="spacingAndGlyphs" textLength="147.6" x="85.8" y="31.1941">Queue4Conversion</text><rect fill="#FEFECE" filter="url(#f64zzbabr33z)" height="60" rx="15" ry="15" style="stroke: #A80036; stroke-width: 1.7999999999999998;" width="148.8" x="288" y="9.6"/><line style="stroke: #A80036; stroke-width: 1.7999999999999998;" x1="288" x2="436.8" y1="41.1563" y2="41.1563"/><text fill="#000000" font-family="sans-serif" font-size="16.8" lengthAdjust="spacingAndGlyphs" textLength="124.8" x="300" y="31.1941">Queue4Delivery</text><rect fill="#FEFECE" filter="url(#f64zzbabr33z)" height="60" rx="15" ry="15" style="stroke: #A80036; stroke-width: 1.7999999999999998;" width="140.4" x="89.4" y="198"/><line style="stroke: #A80036; stroke-width: 1.7999999999999998;" x1="89.4" x2="229.8" y1="229.5563" y2="229.5563"/><text fill="#000000" font-family="sans-serif" font-size="16.8" lengthAdjust="spacingAndGlyphs" textLength="116.4" x="101.4" y="219.5941">Queue4Repeat</text><ellipse cx="474" cy="228" fill="none" filter="url(#f64zzbabr33z)" rx="12" ry="12" style="stroke: #000000; stroke-width: 1.2;"/><ellipse cx="474.6" cy="228.6" fill="#000000" rx="7.2" ry="7.2" style="stroke: none; stroke-width: 1.2;"/><!--MD5=[b1b0ac725fe599027dcc8ddf88c24570]
link *start to Queue4Conversion--><path d="M31.2656,39.6 C43.2186,39.6 55.1717,39.6 67.1246,39.6 " fill="none" id="*start-&gt;Queue4Conversion" style="stroke: #A80036; stroke-width: 1.2;"/><polygon fill="#A80036" points="73.3753,39.6,62.5753,34.8,67.3753,39.6,62.5753,44.4,73.3753,39.6" style="stroke: #A80036; stroke-width: 1.2;"/><!--MD5=[3c276ef7986ac98812cadf3600b95152]
link Queue4Conversion to Queue4Delivery--><path d="M245.5524,39.6 C257.472,39.6 269.3916,39.6 281.3112,39.6 " fill="none" id="Queue4Conversion-&gt;Queue4Delivery" style="stroke: #A80036; stroke-width: 1.2;"/><polygon fill="#A80036" points="287.544,39.6,276.744,34.8,281.544,39.6,276.744,44.4,287.544,39.6" style="stroke: #A80036; stroke-width: 1.2;"/><!--MD5=[144f07633709e8a0f53735895039adc7]
link Queue4Conversion to Queue4Repeat--><path d="M159.6,69.8628 C159.6,102.7584 159.6,156.3396 159.6,191.5834 " fill="none" id="Queue4Conversion-&gt;Queue4Repeat" style="stroke: #A80036; stroke-width: 1.2;"/><polygon fill="#A80036" points="159.6,197.9416,164.4,187.1416,159.6,191.9416,154.8,187.1416,159.6,197.9416" style="stroke: #A80036; stroke-width: 1.2;"/><!--MD5=[97c3ac16a241f6b9c3387b1354717238]
link Queue4Delivery to Queue4Repeat--><path d="M287.9724,69.6768 C269.0208,79.2576 249.6192,91.2288 234,105.6 C207.5388,129.948 187.1052,165.8192 174.4056,192.2225 " fill="none" id="Queue4Delivery-&gt;Queue4Repeat" style="stroke: #A80036; stroke-width: 1.2;"/><polygon fill="#A80036" points="171.8136,197.7054,180.7692,189.9933,174.3781,192.2811,172.0903,185.89,171.8136,197.7054" style="stroke: #A80036; stroke-width: 1.2;"/><text fill="#000000" font-family="sans-serif" font-size="15.6" lengthAdjust="spacingAndGlyphs" textLength="175.2" x="235.2" y="121.2803">Помещение исходного</text><text fill="#000000" font-family="sans-serif" font-size="15.6" lengthAdjust="spacingAndGlyphs" textLength="168" x="238.8" y="139.4396">сообщения в очередь</text><text fill="#000000" font-family="sans-serif" font-size="15.6" lengthAdjust="spacingAndGlyphs" textLength="75.6" x="285" y="157.599">на повтор</text><!--MD5=[7e86a30dc2ed6712b10482951354ad43]
link Queue4Delivery to *end--><path d="M392.4084,69.7716 C402.3924,80.418 413.0352,92.97 421.2,105.6 C443.6184,140.2799 460.6056,186.0798 468.7224,210.2386 " fill="none" id="Queue4Delivery-&gt;*end" style="stroke: #A80036; stroke-width: 1.2;"/><polygon fill="#A80036" points="470.6832,216.1734,471.8532,204.4128,468.8011,210.4762,462.7377,207.4242,470.6832,216.1734" style="stroke: #A80036; stroke-width: 1.2;"/><text fill="#000000" font-family="sans-serif" font-size="15.6" lengthAdjust="spacingAndGlyphs" textLength="70.8" x="462" y="130.2803">Доставка</text><text fill="#000000" font-family="sans-serif" font-size="15.6" lengthAdjust="spacingAndGlyphs" textLength="92.4" x="451.2" y="148.4396">получателю</text><!--MD5=[131f69b33cb0d8c343c057271c7867e0]
link Queue4Repeat to *end--><path d="M230.1576,228 C303.0228,228 412.0056,228 455.3004,228 " fill="none" id="Queue4Repeat-&gt;*end" style="stroke: #A80036; stroke-width: 1.2;"/><polygon fill="#A80036" points="461.6688,228,450.8688,223.2,455.6688,228,450.8688,232.8,461.6688,228" style="stroke: #A80036; stroke-width: 1.2;"/><text fill="#000000" font-family="sans-serif" font-size="15.6" lengthAdjust="spacingAndGlyphs" textLength="177.6" x="257.1" y="183.6803">Доставка отправителю</text><text fill="#000000" font-family="sans-serif" font-size="15.6" lengthAdjust="spacingAndGlyphs" textLength="169.2" x="261.3" y="201.8396">исходного сообщения</text><text fill="#000000" font-family="sans-serif" font-size="15.6" lengthAdjust="spacingAndGlyphs" textLength="188.4" x="251.7" y="219.999">для повторной отправки</text><!--MD5=[468f728173de5588f920b88c509cbd78]
@startuml

[*] -> Queue4Conversion

Queue4Conversion -> Queue4Delivery

Queue4Conversion - -> Queue4Repeat
Queue4Delivery   - -> Queue4Repeat : Помещение исходного\nсообщения в очередь\nна повтор

Queue4Delivery -> [*] : Доставка\nполучателю
Queue4Repeat   -> [*] : Доставка отправителю\nисходного сообщения\nдля повторной отправки

@enduml

PlantUML version 1.2019.10(Fri Sep 13 23:53:03 MSK 2019)
(GPL source distribution)
Java Runtime: OpenJDK Runtime Environment
JVM: OpenJDK 64-Bit Server VM
Java Version: 11.0.4+10-b304.69
Operating System: Linux
Default Encoding: UTF-8
Language: ru
Country: RU
--></g></svg>