<?xml version="1.0" encoding="UTF-8" standalone="no"?>
<svg xmlns="http://www.w3.org/2000/svg" contentScriptType="application/ecmascript" contentStyleType="text/css"
     height="756px" preserveAspectRatio="none" style="width:466px;height:756px;" version="1.1" viewBox="0 0 466 756"
     width="466.4px" zoomAndPan="magnify"><defs><filter height="300%" id="f1xglajzxzsb2b" width="300%" x="-1" y="-1"><feGaussianBlur result="blurOut" stdDeviation="1.6"/><feColorMatrix in="blurOut" result="blurOut2" type="matrix" values="0 0 0 0 0 0 0 0 0 0 0 0 0 0 0 0 0 0 .4 0"/><feOffset dx="3.2" dy="3.2" in="blurOut2" result="blurOut3"/><feBlend in="SourceGraphic" in2="blurOut3" mode="normal"/></filter></defs><g><!--cluster ru.kbakaras.e2.message--><polygon fill="#FFFFFF" filter="url(#f1xglajzxzsb2b)" points="17.6,19.2,169.6,19.2,175.2,37.0375,448.8,37.0375,448.8,746.4,17.6,746.4,17.6,19.2" style="stroke: #000000; stroke-width: 1.2000000000000002;"/><line style="stroke: #000000; stroke-width: 1.2000000000000002;" x1="17.6" x2="175.2" y1="37.0375" y2="37.0375"/><text fill="#000000" font-family="sans-serif" font-size="11.2" font-weight="bold" lengthAdjust="spacingAndGlyphs" textLength="147.2" x="20.8" y="31.1961">ru.kbakaras.e2.message</text><!--class ru.kbakaras.e2.message.E2Request--><rect fill="#FEFECE" filter="url(#f1xglajzxzsb2b)" height="212.5438" id="ru.kbakaras.e2.message.E2Request" style="stroke: #A80036; stroke-width: 1.2000000000000002;" width="136" x="60" y="328.8"/><ellipse cx="100.6" cy="341.6" fill="#ADD1B2" rx="8.8" ry="8.8" style="stroke: #A80036; stroke-width: 0.8;"/><path d="M102.575,346.5125 Q102.1125,346.75 101.6,346.8625 Q101.0875,346.9875 100.525,346.9875 Q98.525,346.9875 97.4625,345.675 Q96.4125,344.35 96.4125,341.85 Q96.4125,339.35 97.4625,338.025 Q98.525,336.7 100.525,336.7 Q101.0875,336.7 101.6,336.825 Q102.125,336.95 102.575,337.1875 L102.575,339.3625 Q102.075,338.9 101.6,338.6875 Q101.125,338.4625 100.625,338.4625 Q99.55,338.4625 99,339.325 Q98.45,340.175 98.45,341.85 Q98.45,343.525 99,344.3875 Q99.55,345.2375 100.625,345.2375 Q101.125,345.2375 101.6,345.025 Q102.075,344.8 102.575,344.3375 L102.575,346.5125 Z "/><text fill="#000000" font-family="sans-serif" font-size="9.6" lengthAdjust="spacingAndGlyphs" textLength="48" x="117" y="344.9234">E2Request</text><line style="stroke: #A80036; stroke-width: 1.2000000000000002;" x1="60.8" x2="195.2" y1="354.4" y2="354.4"/><rect fill="none" height="4.8" style="stroke: #C82930; stroke-width: 0.8;" width="4.8" x="66.4" y="361.5219"/><text fill="#000000" font-family="sans-serif" font-size="8.8" lengthAdjust="spacingAndGlyphs" textLength="115.2" x="76" y="365.7684">lContext : Lazy&lt;E2Payload&gt;</text><rect fill="none" height="4.8" style="stroke: #C82930; stroke-width: 0.8;" width="4.8" x="66.4" y="371.7656"/><text fill="#000000" font-family="sans-serif" font-size="8.8" lengthAdjust="spacingAndGlyphs" textLength="55.2" x="76" y="376.0121">xml : Element</text><line style="stroke: #A80036; stroke-width: 1.2000000000000002;" x1="60.8" x2="195.2" y1="381.2875" y2="381.2875"/><ellipse cx="68.8" cy="390.8094" fill="#84BE84" rx="2.4" ry="2.4" style="stroke: #038048; stroke-width: 0.8;"/><text fill="#000000" font-family="sans-serif" font-size="8.8" lengthAdjust="spacingAndGlyphs" textLength="48.8" x="76" y="392.6559">E2Request()</text><ellipse cx="68.8" cy="401.0531" fill="#84BE84" rx="2.4" ry="2.4" style="stroke: #038048; stroke-width: 0.8;"/><text fill="#000000" font-family="sans-serif" font-size="8.8" lengthAdjust="spacingAndGlyphs" textLength="48.8" x="76" y="402.8996">E2Request()</text><ellipse cx="68.8" cy="411.2969" fill="#84BE84" rx="2.4" ry="2.4" style="stroke: #038048; stroke-width: 0.8;"/><text fill="#000000" font-family="sans-serif" font-size="8.8" lengthAdjust="spacingAndGlyphs" textLength="96" x="76" y="413.1434">addDestinationSystem()</text><ellipse cx="68.8" cy="421.5406" fill="#84BE84" rx="2.4" ry="2.4" style="stroke: #038048; stroke-width: 0.8;"/><text fill="#000000" font-family="sans-serif" font-size="8.8" lengthAdjust="spacingAndGlyphs" textLength="76" x="76" y="423.3871">addEntityRequest()</text><ellipse cx="68.8" cy="431.7844" fill="#84BE84" rx="2.4" ry="2.4" style="stroke: #038048; stroke-width: 0.8;"/><text fill="#000000" font-family="sans-serif" font-size="8.8" lengthAdjust="spacingAndGlyphs" textLength="92.8" x="76" y="433.6309">addReferenceRequest()</text><ellipse cx="68.8" cy="442.0281" fill="#84BE84" rx="2.4" ry="2.4" style="stroke: #038048; stroke-width: 0.8;"/><text fill="#000000" font-family="sans-serif" font-size="8.8" lengthAdjust="spacingAndGlyphs" textLength="36.8" x="76" y="443.8746">context()</text><ellipse cx="68.8" cy="452.2719" fill="#84BE84" rx="2.4" ry="2.4" style="stroke: #038048; stroke-width: 0.8;"/><text fill="#000000" font-family="sans-serif" font-size="8.8" lengthAdjust="spacingAndGlyphs" textLength="63.2" x="76" y="454.1184">createContext()</text><ellipse cx="68.8" cy="462.5156" fill="#84BE84" rx="2.4" ry="2.4" style="stroke: #038048; stroke-width: 0.8;"/><text fill="#000000" font-family="sans-serif" font-size="8.8" lengthAdjust="spacingAndGlyphs" textLength="97.6" x="76" y="464.3621">destinationSystemUids()</text><ellipse cx="68.8" cy="472.7594" fill="#84BE84" rx="2.4" ry="2.4" style="stroke: #038048; stroke-width: 0.8;"/><text fill="#000000" font-family="sans-serif" font-size="8.8" lengthAdjust="spacingAndGlyphs" textLength="36" x="76" y="474.6059">entities()</text><ellipse cx="68.8" cy="483.0031" fill="#84BE84" rx="2.4" ry="2.4" style="stroke: #038048; stroke-width: 0.8;"/><text fill="#000000" font-family="sans-serif" font-size="8.8" lengthAdjust="spacingAndGlyphs" textLength="48" x="76" y="484.8496">references()</text><ellipse cx="68.8" cy="493.2469" fill="#84BE84" rx="2.4" ry="2.4" style="stroke: #038048; stroke-width: 0.8;"/><text fill="#000000" font-family="sans-serif" font-size="8.8" lengthAdjust="spacingAndGlyphs" textLength="55.2" x="76" y="495.0934">requestType()</text><ellipse cx="68.8" cy="503.4906" fill="#84BE84" rx="2.4" ry="2.4" style="stroke: #038048; stroke-width: 0.8;"/><text fill="#000000" font-family="sans-serif" font-size="8.8" lengthAdjust="spacingAndGlyphs" textLength="75.2" x="76" y="505.3371">setSourceSystem()</text><ellipse cx="68.8" cy="513.7344" fill="#84BE84" rx="2.4" ry="2.4" style="stroke: #038048; stroke-width: 0.8;"/><text fill="#000000" font-family="sans-serif" font-size="8.8" lengthAdjust="spacingAndGlyphs" textLength="86.4" x="76" y="515.5809">sourceSystemName()</text><ellipse cx="68.8" cy="523.9781" fill="#84BE84" rx="2.4" ry="2.4" style="stroke: #038048; stroke-width: 0.8;"/><text fill="#000000" font-family="sans-serif" font-size="8.8" lengthAdjust="spacingAndGlyphs" textLength="76" x="76" y="525.8246">sourceSystemUid()</text><ellipse cx="68.8" cy="534.2219" fill="#84BE84" rx="2.4" ry="2.4" style="stroke: #038048; stroke-width: 0.8;"/><text fill="#000000" font-family="sans-serif" font-size="8.8" lengthAdjust="spacingAndGlyphs" textLength="21.6" x="76" y="536.0684">xml()</text><!--class ru.kbakaras.e2.message.E2XmlProducer--><rect fill="#FEFECE" filter="url(#f1xglajzxzsb2b)" height="48.6438" id="ru.kbakaras.e2.message.E2XmlProducer" style="stroke: #A80036; stroke-width: 1.2000000000000002;" width="93.6" x="81.2" y="139.2"/><ellipse cx="93.2" cy="152" fill="#B4A7E5" rx="8.8" ry="8.8" style="stroke: #A80036; stroke-width: 0.8;"/><path d="M90.3375,148.6125 L90.3375,146.8875 L96.25,146.8875 L96.25,148.6125 L94.275,148.6125 L94.275,155.075 L96.25,155.075 L96.25,156.8 L90.3375,156.8 L90.3375,155.075 L92.3125,155.075 L92.3125,148.6125 L90.3375,148.6125 Z "/><text fill="#000000" font-family="sans-serif" font-size="9.6" font-style="italic" lengthAdjust="spacingAndGlyphs" textLength="68" x="104.4" y="155.3234">E2XmlProducer</text><line style="stroke: #A80036; stroke-width: 1.2000000000000002;" x1="82" x2="174" y1="164.8" y2="164.8"/><line style="stroke: #A80036; stroke-width: 1.2000000000000002;" x1="82" x2="174" y1="171.2" y2="171.2"/><ellipse cx="90" cy="180.7219" fill="#84BE84" rx="2.4" ry="2.4" style="stroke: #038048; stroke-width: 0.8;"/><text fill="#000000" font-family="sans-serif" font-size="8.8" font-style="italic" lengthAdjust="spacingAndGlyphs" textLength="21.6" x="97.2" y="182.5684">xml()</text><!--class ru.kbakaras.e2.message.E2Response--><rect fill="#FEFECE" filter="url(#f1xglajzxzsb2b)" height="130.5938" id="ru.kbakaras.e2.message.E2Response" style="stroke: #A80036; stroke-width: 1.2000000000000002;" width="206.4" x="91.2" y="603.2"/><ellipse cx="163.4" cy="616" fill="#ADD1B2" rx="8.8" ry="8.8" style="stroke: #A80036; stroke-width: 0.8;"/><path d="M165.375,620.9125 Q164.9125,621.15 164.4,621.2625 Q163.8875,621.3875 163.325,621.3875 Q161.325,621.3875 160.2625,620.075 Q159.2125,618.75 159.2125,616.25 Q159.2125,613.75 160.2625,612.425 Q161.325,611.1 163.325,611.1 Q163.8875,611.1 164.4,611.225 Q164.925,611.35 165.375,611.5875 L165.375,613.7625 Q164.875,613.3 164.4,613.0875 Q163.925,612.8625 163.425,612.8625 Q162.35,612.8625 161.8,613.725 Q161.25,614.575 161.25,616.25 Q161.25,617.925 161.8,618.7875 Q162.35,619.6375 163.425,619.6375 Q163.925,619.6375 164.4,619.425 Q164.875,619.2 165.375,618.7375 L165.375,620.9125 Z "/><text fill="#000000" font-family="sans-serif" font-size="9.6" lengthAdjust="spacingAndGlyphs" textLength="55.2" x="179.8" y="619.3234">E2Response</text><line style="stroke: #A80036; stroke-width: 1.2000000000000002;" x1="92" x2="296.8" y1="628.8" y2="628.8"/><ellipse cx="100" cy="638.3219" fill="none" rx="2.4" ry="2.4" style="stroke: #038048; stroke-width: 0.8;"/><text fill="#000000" font-family="sans-serif" font-size="8.8" lengthAdjust="spacingAndGlyphs" textLength="117.6" x="107.2" y="640.1684">responseType : Lazy&lt;String&gt;</text><rect fill="none" height="4.8" style="stroke: #C82930; stroke-width: 0.8;" width="4.8" x="97.6" y="646.1656"/><text fill="#000000" font-family="sans-serif" font-size="8.8" lengthAdjust="spacingAndGlyphs" textLength="185.6" x="107.2" y="650.4121">responses : Lazy&lt;List&lt;E2SystemResponse&gt;&gt;</text><rect fill="none" height="4.8" style="stroke: #C82930; stroke-width: 0.8;" width="4.8" x="97.6" y="656.4094"/><text fill="#000000" font-family="sans-serif" font-size="8.8" lengthAdjust="spacingAndGlyphs" textLength="55.2" x="107.2" y="660.6559">xml : Element</text><line style="stroke: #A80036; stroke-width: 1.2000000000000002;" x1="92" x2="296.8" y1="665.9313" y2="665.9313"/><ellipse cx="100" cy="675.4531" fill="#84BE84" rx="2.4" ry="2.4" style="stroke: #038048; stroke-width: 0.8;"/><text fill="#000000" font-family="sans-serif" font-size="8.8" lengthAdjust="spacingAndGlyphs" textLength="54.4" x="107.2" y="677.2996">E2Response()</text><ellipse cx="100" cy="685.6969" fill="#84BE84" rx="2.4" ry="2.4" style="stroke: #038048; stroke-width: 0.8;"/><text fill="#000000" font-family="sans-serif" font-size="8.8" lengthAdjust="spacingAndGlyphs" textLength="54.4" x="107.2" y="687.5434">E2Response()</text><ellipse cx="100" cy="695.9406" fill="#84BE84" rx="2.4" ry="2.4" style="stroke: #038048; stroke-width: 0.8;"/><text fill="#000000" font-family="sans-serif" font-size="8.8" lengthAdjust="spacingAndGlyphs" textLength="69.6" x="107.2" y="697.7871">addSystemError()</text><ellipse cx="100" cy="706.1844" fill="#84BE84" rx="2.4" ry="2.4" style="stroke: #038048; stroke-width: 0.8;"/><text fill="#000000" font-family="sans-serif" font-size="8.8" lengthAdjust="spacingAndGlyphs" textLength="88" x="107.2" y="708.0309">addSystemResponse()</text><ellipse cx="100" cy="716.4281" fill="#84BE84" rx="2.4" ry="2.4" style="stroke: #038048; stroke-width: 0.8;"/><text fill="#000000" font-family="sans-serif" font-size="8.8" lengthAdjust="spacingAndGlyphs" textLength="72.8" x="107.2" y="718.2746">systemResponse()</text><ellipse cx="100" cy="726.6719" fill="#84BE84" rx="2.4" ry="2.4" style="stroke: #038048; stroke-width: 0.8;"/><text fill="#000000" font-family="sans-serif" font-size="8.8" lengthAdjust="spacingAndGlyphs" textLength="21.6" x="107.2" y="728.5184">xml()</text><!--class ru.kbakaras.e2.message.E2SystemResponse--><rect fill="#FEFECE" filter="url(#f1xglajzxzsb2b)" height="58.8875" id="ru.kbakaras.e2.message.E2SystemResponse" style="stroke: #A80036; stroke-width: 1.2000000000000002;" width="114.4" x="321.2" y="405.6"/><ellipse cx="333.2" cy="418.4" fill="#ADD1B2" rx="8.8" ry="8.8" style="stroke: #A80036; stroke-width: 0.8;"/><path d="M335.175,423.3125 Q334.7125,423.55 334.2,423.6625 Q333.6875,423.7875 333.125,423.7875 Q331.125,423.7875 330.0625,422.475 Q329.0125,421.15 329.0125,418.65 Q329.0125,416.15 330.0625,414.825 Q331.125,413.5 333.125,413.5 Q333.6875,413.5 334.2,413.625 Q334.725,413.75 335.175,413.9875 L335.175,416.1625 Q334.675,415.7 334.2,415.4875 Q333.725,415.2625 333.225,415.2625 Q332.15,415.2625 331.6,416.125 Q331.05,416.975 331.05,418.65 Q331.05,420.325 331.6,421.1875 Q332.15,422.0375 333.225,422.0375 Q333.725,422.0375 334.2,421.825 Q334.675,421.6 335.175,421.1375 L335.175,423.3125 Z "/><text fill="#000000" font-family="sans-serif" font-size="9.6" lengthAdjust="spacingAndGlyphs" textLength="88.8" x="344.4" y="421.7234">E2SystemResponse</text><line style="stroke: #A80036; stroke-width: 1.2000000000000002;" x1="322" x2="434.8" y1="431.2" y2="431.2"/><ellipse cx="330" cy="440.7219" fill="none" rx="2.4" ry="2.4" style="stroke: #038048; stroke-width: 0.8;"/><text fill="#000000" font-family="sans-serif" font-size="8.8" lengthAdjust="spacingAndGlyphs" textLength="80.8" x="337.2" y="442.5684">parent : E2Response</text><line style="stroke: #A80036; stroke-width: 1.2000000000000002;" x1="322" x2="434.8" y1="447.8438" y2="447.8438"/><ellipse cx="330" cy="457.3656" fill="#84BE84" rx="2.4" ry="2.4" style="stroke: #038048; stroke-width: 0.8;"/><text fill="#000000" font-family="sans-serif" font-size="8.8" lengthAdjust="spacingAndGlyphs" textLength="84" x="337.2" y="459.2121">E2SystemResponse()</text><!--class ru.kbakaras.e2.message.E2Payload--><rect fill="#FEFECE" filter="url(#f1xglajzxzsb2b)" height="233.0313" id="ru.kbakaras.e2.message.E2Payload" style="stroke: #A80036; stroke-width: 1.2000000000000002;" width="175.2" x="231.6" y="47.2"/><ellipse cx="292.2" cy="60" fill="#ADD1B2" rx="8.8" ry="8.8" style="stroke: #A80036; stroke-width: 0.8;"/><path d="M294.175,64.9125 Q293.7125,65.15 293.2,65.2625 Q292.6875,65.3875 292.125,65.3875 Q290.125,65.3875 289.0625,64.075 Q288.0125,62.75 288.0125,60.25 Q288.0125,57.75 289.0625,56.425 Q290.125,55.1 292.125,55.1 Q292.6875,55.1 293.2,55.225 Q293.725,55.35 294.175,55.5875 L294.175,57.7625 Q293.675,57.3 293.2,57.0875 Q292.725,56.8625 292.225,56.8625 Q291.15,56.8625 290.6,57.725 Q290.05,58.575 290.05,60.25 Q290.05,61.925 290.6,62.7875 Q291.15,63.6375 292.225,63.6375 Q292.725,63.6375 293.2,63.425 Q293.675,63.2 294.175,62.7375 L294.175,64.9125 Z "/><text fill="#000000" font-family="sans-serif" font-size="9.6" lengthAdjust="spacingAndGlyphs" textLength="47.2" x="308.6" y="63.3234">E2Payload</text><line style="stroke: #A80036; stroke-width: 1.2000000000000002;" x1="232.4" x2="406" y1="72.8" y2="72.8"/><polygon fill="none" points="240.4,78.3219,243.6,81.5219,240.4,84.7219,237.2,81.5219" style="stroke: #B38D22; stroke-width: 0.8;"/><text fill="#000000" font-family="sans-serif" font-size="8.8" lengthAdjust="spacingAndGlyphs" textLength="55.2" x="247.6" y="84.1684">xml : Element</text><rect fill="none" height="4.8" style="stroke: #C82930; stroke-width: 0.8;" width="4.8" x="238" y="90.1656"/><text fill="#000000" font-family="sans-serif" font-size="8.8" lengthAdjust="spacingAndGlyphs" textLength="154.4" x="247.6" y="94.4121">entities : MapCache&lt;String, E2Entity&gt;</text><rect fill="none" height="4.8" style="stroke: #C82930; stroke-width: 0.8;" width="4.8" x="238" y="100.4094"/><text fill="#000000" font-family="sans-serif" font-size="8.8" lengthAdjust="spacingAndGlyphs" text-decoration="underline" textLength="109.6" x="247.6" y="104.6559">entityXPath : Lazy&lt;XPath&gt;</text><rect fill="none" height="4.8" style="stroke: #C82930; stroke-width: 0.8;" width="4.8" x="238" y="110.6531"/><text fill="#000000" font-family="sans-serif" font-size="8.8" lengthAdjust="spacingAndGlyphs" text-decoration="underline" textLength="106.4" x="247.6" y="114.8996">stateXPath : Lazy&lt;XPath&gt;</text><rect fill="none" height="4.8" style="stroke: #C82930; stroke-width: 0.8;" width="4.8" x="238" y="120.8969"/><text fill="#000000" font-family="sans-serif" font-size="8.8" lengthAdjust="spacingAndGlyphs" textLength="146.4" x="247.6" y="125.1434">states : MapCache&lt;String, E2State&gt;</text><line style="stroke: #A80036; stroke-width: 1.2000000000000002;" x1="232.4" x2="406" y1="130.4188" y2="130.4188"/><ellipse cx="240.4" cy="139.9406" fill="#84BE84" rx="2.4" ry="2.4" style="stroke: #038048; stroke-width: 0.8;"/><text fill="#000000" font-family="sans-serif" font-size="8.8" lengthAdjust="spacingAndGlyphs" textLength="48" x="247.6" y="141.7871">E2Payload()</text><ellipse cx="240.4" cy="150.1844" fill="#84BE84" rx="2.4" ry="2.4" style="stroke: #038048; stroke-width: 0.8;"/><text fill="#000000" font-family="sans-serif" font-size="8.8" lengthAdjust="spacingAndGlyphs" textLength="55.2" x="247.6" y="152.0309">createEntity()</text><ellipse cx="240.4" cy="160.4281" fill="#84BE84" rx="2.4" ry="2.4" style="stroke: #038048; stroke-width: 0.8;"/><text fill="#000000" font-family="sans-serif" font-size="8.8" lengthAdjust="spacingAndGlyphs" textLength="52.8" x="247.6" y="162.2746">createState()</text><ellipse cx="240.4" cy="170.6719" fill="#84BE84" rx="2.4" ry="2.4" style="stroke: #038048; stroke-width: 0.8;"/><text fill="#000000" font-family="sans-serif" font-size="8.8" lengthAdjust="spacingAndGlyphs" textLength="36" x="247.6" y="172.5184">entities()</text><ellipse cx="240.4" cy="180.9156" fill="#84BE84" rx="2.4" ry="2.4" style="stroke: #038048; stroke-width: 0.8;"/><text fill="#000000" font-family="sans-serif" font-size="8.8" lengthAdjust="spacingAndGlyphs" textLength="29.6" x="247.6" y="182.7621">entity()</text><ellipse cx="240.4" cy="191.1594" fill="#84BE84" rx="2.4" ry="2.4" style="stroke: #038048; stroke-width: 0.8;"/><text fill="#000000" font-family="sans-serif" font-size="8.8" lengthAdjust="spacingAndGlyphs" textLength="81.6" x="247.6" y="193.0059">referencedElement()</text><ellipse cx="240.4" cy="201.4031" fill="#84BE84" rx="2.4" ry="2.4" style="stroke: #038048; stroke-width: 0.8;"/><text fill="#000000" font-family="sans-serif" font-size="8.8" lengthAdjust="spacingAndGlyphs" textLength="72" x="247.6" y="203.2496">setSystemName()</text><ellipse cx="240.4" cy="211.6469" fill="#84BE84" rx="2.4" ry="2.4" style="stroke: #038048; stroke-width: 0.8;"/><text fill="#000000" font-family="sans-serif" font-size="8.8" lengthAdjust="spacingAndGlyphs" textLength="61.6" x="247.6" y="213.4934">setSystemUid()</text><ellipse cx="240.4" cy="221.8906" fill="#84BE84" rx="2.4" ry="2.4" style="stroke: #038048; stroke-width: 0.8;"/><text fill="#000000" font-family="sans-serif" font-size="8.8" lengthAdjust="spacingAndGlyphs" textLength="61.6" x="247.6" y="223.7371">setSystemUid()</text><ellipse cx="240.4" cy="232.1344" fill="#84BE84" rx="2.4" ry="2.4" style="stroke: #038048; stroke-width: 0.8;"/><text fill="#000000" font-family="sans-serif" font-size="8.8" lengthAdjust="spacingAndGlyphs" textLength="26.4" x="247.6" y="233.9809">state()</text><ellipse cx="240.4" cy="242.3781" fill="#84BE84" rx="2.4" ry="2.4" style="stroke: #038048; stroke-width: 0.8;"/><text fill="#000000" font-family="sans-serif" font-size="8.8" lengthAdjust="spacingAndGlyphs" textLength="30.4" x="247.6" y="244.2246">states()</text><ellipse cx="240.4" cy="252.6219" fill="#84BE84" rx="2.4" ry="2.4" style="stroke: #038048; stroke-width: 0.8;"/><text fill="#000000" font-family="sans-serif" font-size="8.8" lengthAdjust="spacingAndGlyphs" textLength="59.2" x="247.6" y="254.4684">systemName()</text><ellipse cx="240.4" cy="262.8656" fill="#84BE84" rx="2.4" ry="2.4" style="stroke: #038048; stroke-width: 0.8;"/><text fill="#000000" font-family="sans-serif" font-size="8.8" lengthAdjust="spacingAndGlyphs" textLength="48.8" x="247.6" y="264.7121">systemUid()</text><polygon fill="#4177AF" points="240.4,269.9094,237.2,274.7094,243.6,274.7094" style="stroke: #1963A0; stroke-width: 0.8;"/><text fill="#000000" font-family="sans-serif" font-size="8.8" lengthAdjust="spacingAndGlyphs" textLength="104.8" x="247.6" y="274.9559">reorderEntitiesAndStates()</text><!--class ru.kbakaras.e2.message.E2Update--><rect fill="#FEFECE" filter="url(#f1xglajzxzsb2b)" height="79.375" id="ru.kbakaras.e2.message.E2Update" style="stroke: #A80036; stroke-width: 1.2000000000000002;" width="68.8" x="224" y="395.6"/><ellipse cx="236" cy="408.4" fill="#ADD1B2" rx="8.8" ry="8.8" style="stroke: #A80036; stroke-width: 0.8;"/><path d="M237.975,413.3125 Q237.5125,413.55 237,413.6625 Q236.4875,413.7875 235.925,413.7875 Q233.925,413.7875 232.8625,412.475 Q231.8125,411.15 231.8125,408.65 Q231.8125,406.15 232.8625,404.825 Q233.925,403.5 235.925,403.5 Q236.4875,403.5 237,403.625 Q237.525,403.75 237.975,403.9875 L237.975,406.1625 Q237.475,405.7 237,405.4875 Q236.525,405.2625 236.025,405.2625 Q234.95,405.2625 234.4,406.125 Q233.85,406.975 233.85,408.65 Q233.85,410.325 234.4,411.1875 Q234.95,412.0375 236.025,412.0375 Q236.525,412.0375 237,411.825 Q237.475,411.6 237.975,411.1375 L237.975,413.3125 Z "/><text fill="#000000" font-family="sans-serif" font-size="9.6" lengthAdjust="spacingAndGlyphs" textLength="43.2" x="247.2" y="411.7234">E2Update</text><line style="stroke: #A80036; stroke-width: 1.2000000000000002;" x1="224.8" x2="292" y1="421.2" y2="421.2"/><line style="stroke: #A80036; stroke-width: 1.2000000000000002;" x1="224.8" x2="292" y1="427.6" y2="427.6"/><ellipse cx="232.8" cy="437.1219" fill="#84BE84" rx="2.4" ry="2.4" style="stroke: #038048; stroke-width: 0.8;"/><text fill="#000000" font-family="sans-serif" font-size="8.8" lengthAdjust="spacingAndGlyphs" textLength="45.6" x="240" y="438.9684">E2Update()</text><ellipse cx="232.8" cy="447.3656" fill="#84BE84" rx="2.4" ry="2.4" style="stroke: #038048; stroke-width: 0.8;"/><text fill="#000000" font-family="sans-serif" font-size="8.8" lengthAdjust="spacingAndGlyphs" textLength="45.6" x="240" y="449.2121">E2Update()</text><ellipse cx="232.8" cy="457.6094" fill="#84BE84" rx="2.4" ry="2.4" style="stroke: #038048; stroke-width: 0.8;"/><text fill="#000000" font-family="sans-serif" font-size="8.8" lengthAdjust="spacingAndGlyphs" textLength="45.6" x="240" y="459.4559">E2Update()</text><ellipse cx="232.8" cy="467.8531" fill="#84BE84" rx="2.4" ry="2.4" style="stroke: #038048; stroke-width: 0.8;"/><text fill="#000000" font-family="sans-serif" font-size="8.8" lengthAdjust="spacingAndGlyphs" textLength="21.6" x="240" y="469.6996">xml()</text><!--link ru.kbakaras.e2.message.E2XmlProducer to ru.kbakaras.e2.message.E2Request--><path d="M128,204.208 C128,236.9896 128,285.0184 128,328.7352 " fill="none" id="ru.kbakaras.e2.message.E2XmlProducer-ru.kbakaras.e2.message.E2Request" style="stroke: #A80036; stroke-width: 0.8; stroke-dasharray: 7.0,7.0;"/><polygon fill="none" points="122.4,204.124,128,188.124,133.6,204.124,122.4,204.124" style="stroke: #A80036; stroke-width: 0.8;"/><!--link ru.kbakaras.e2.message.E2XmlProducer to ru.kbakaras.e2.message.E2Response--><path d="M102.9976,201.632 C83.0284,233.7496 56.627,282.1904 45.6,328.8 C23.8257,420.8368 5.8221,455.7936 45.6,541.6 C56.4202,564.9408 73.9304,585.528 93.2048,602.9392 " fill="none" id="ru.kbakaras.e2.message.E2XmlProducer-ru.kbakaras.e2.message.E2Response" style="stroke: #A80036; stroke-width: 0.8; stroke-dasharray: 7.0,7.0;"/><polygon fill="none" points="98.3128,198.5624,111.6416,188.0888,107.7536,204.588,98.3128,198.5624" style="stroke: #A80036; stroke-width: 0.8;"/><!--link ru.kbakaras.e2.message.E2Payload to ru.kbakaras.e2.message.E2SystemResponse--><path d="M348.0168,295.828 C357.0576,337.06 366.1952,378.736 372.0544,405.4584 " fill="none" id="ru.kbakaras.e2.message.E2Payload-ru.kbakaras.e2.message.E2SystemResponse" style="stroke: #A80036; stroke-width: 0.8;"/><polygon fill="none" points="342.5208,296.9072,344.564,280.0792,353.4608,294.5088,342.5208,296.9072" style="stroke: #A80036; stroke-width: 0.8;"/><!--link ru.kbakaras.e2.message.E2SystemResponse to ru.kbakaras.e2.message.E2Response--><path d="M354.7512,473.74 C341.436,494.284 324.124,519.8696 307.2,541.6 C291.144,562.216 272.6184,583.7256 255.2808,603.0168 " fill="none" id="ru.kbakaras.e2.message.E2SystemResponse-ru.kbakaras.e2.message.E2Response" style="stroke: #A80036; stroke-width: 0.8;"/><polygon fill="#FFFFFF" points="360.3856,464.98,355.0976,467.286,355.1924,473.0541,360.4804,470.7481,360.3856,464.98" style="stroke: #A80036; stroke-width: 0.8;"/><text fill="#000000" font-family="sans-serif" font-size="10.4" lengthAdjust="spacingAndGlyphs" textLength="32.8" x="287.2" y="576.0535">parent</text><!--link ru.kbakaras.e2.message.E2XmlProducer to ru.kbakaras.e2.message.E2Update--><path d="M147.7032,202.68 C164.6624,235.8704 189.6112,285.2784 210.4,328.8 C220.8592,350.6968 232.1072,375.3768 241.084,395.368 " fill="none" id="ru.kbakaras.e2.message.E2XmlProducer-ru.kbakaras.e2.message.E2Update" style="stroke: #A80036; stroke-width: 0.8; stroke-dasharray: 7.0,7.0;"/><polygon fill="none" points="142.6056,205.0128,140.2952,188.2192,152.5744,199.9064,142.6056,205.0128" style="stroke: #A80036; stroke-width: 0.8;"/><!--link ru.kbakaras.e2.message.E2Payload to ru.kbakaras.e2.message.E2Update--><path d="M289.596,295.8648 C281.4192,332.1752 273.1664,368.8264 267.204,395.3016 " fill="none" id="ru.kbakaras.e2.message.E2Payload-ru.kbakaras.e2.message.E2Update" style="stroke: #A80036; stroke-width: 0.8;"/><polygon fill="none" points="284.1728,294.4584,293.1504,280.0792,295.0992,296.9184,284.1728,294.4584" style="stroke: #A80036; stroke-width: 0.8;"/><!--
@startuml

  namespace ru.kbakaras.e2.message {

    E2Request        .up.|> E2XmlProducer
    E2Response       .up.|> E2XmlProducer
    E2SystemResponse -up-|> E2Payload
    E2SystemResponse - -o    E2Response : parent
    E2Update         .up.|> E2XmlProducer
    E2Update         -up-|> E2Payload


    interface E2XmlProducer {
        {abstract} + xml()
    }

    class E2Payload {
        # xml : Element
        - entities : MapCache<String, E2Entity>
        {static} - entityXPath : Lazy<XPath>
        {static} - stateXPath : Lazy<XPath>
        - states : MapCache<String, E2State>
        + E2Payload()
        + createEntity()
        + createState()
        + entities()
        + entity()
        + referencedElement()
        + setSystemName()
        + setSystemUid()
        + setSystemUid()
        + state()
        + states()
        + systemName()
        + systemUid()
        ~ reorderEntitiesAndStates()
    }

    class E2Request {
        - lContext : Lazy<E2Payload>
        - xml : Element
        + E2Request()
        + E2Request()
        + addDestinationSystem()
        + addEntityRequest()
        + addReferenceRequest()
        + context()
        + createContext()
        + destinationSystemUids()
        + entities()
        + references()
        + requestType()
        + setSourceSystem()
        + sourceSystemName()
        + sourceSystemUid()
        + xml()
    }

    class E2Response {
        + responseType : Lazy<String>
        - responses : Lazy<List<E2SystemResponse>>
        - xml : Element
        + E2Response()
        + E2Response()
        + addSystemError()
        + addSystemResponse()
        + systemResponse()
        + xml()
    }

    class E2SystemResponse {
        + parent : E2Response
        + E2SystemResponse()
    }

    class E2Update {
        + E2Update()
        + E2Update()
        + E2Update()
        + xml()
    }

  }

@enduml

PlantUML version 1.2019.08(Sat Jul 13 22:25:14 MSK 2019)
(GPL source distribution)
Java Runtime: OpenJDK Runtime Environment
JVM: OpenJDK 64-Bit Server VM
Java Version: 11.0.3+12-b304.10
Operating System: Linux
OS Version: 4.9.0-8-amd64
Default Encoding: UTF-8
Language: ru
Country: RU
--></g></svg>